<svg width="120" height="120" xmlns="http://www.w3.org/2000/svg"><g stroke="#DADEE3" fill="none" fill-rule="evenodd"><path d="M50.598 11.093C25.554 15.76 11.728 24.573 9.12 37.535 5.99 68.644 128.08 70.2 113.21 102.863c-7.826 10.887-25.566 13.22-53.219 6.999" stroke-dasharray="3"/><g stroke-linejoin="round"><path fill="#FFF" d="m55 68.27 42.162-12.324v49.577L55 117.568zM55 68.108 16.081 55.946v49.577L55 117.568z"/><path fill="#FFF" d="M16.012 56.04 55 68.108 42.5 86.757 4.73 73.063zM97.162 55.946 55 68.108l12.81 18.649 42.325-14.166z"/><path fill="#F6F7F8" d="m16.081 55.946 43.347-12.162 37.734 12.162L55 68.108z"/></g><g stroke-linejoin="round"><path fill="#FFF" d="M78.068 10.31 60.04 8.8l2.79-5.31z"/><path fill="#F6F7F8" d="M78.068 10.31 56.45 13.88l-3.834-5.934z"/></g></g></svg>