<?xml version="1.0" encoding="UTF-8"?>
<svg width="360px" height="360px" viewBox="0 0 360 360" version="1.1" xmlns="http://www.w3.org/2000/svg" xmlns:xlink="http://www.w3.org/1999/xlink">
    <!-- Generator: Sketch 61.2 (89653) - https://sketch.com -->
    <title>logo_gitee_icon@1x</title>
    <desc>Created with Sketch.</desc>
    <g id="LOGO" stroke="none" stroke-width="1" fill="none" fill-rule="evenodd">
        <g id="logo_lightbg" transform="translate(-12.000000, -603.000000)" fill="#C71D23">
            <g id="logo_gitee_icon" transform="translate(12.000000, 603.000000)">
                <g id="Group">
                    <path d="M179.764434,0 C279.045589,0 359.528868,80.4832785 359.528868,179.764434 C359.528868,279.045589 279.045589,359.528868 179.764434,359.528868 C80.4832785,359.528868 0,279.045589 0,179.764434 C0,80.4832785 80.4832785,0 179.764434,0 Z M270.761863,79.8953054 C270.760027,79.8953043 270.758192,79.8953037 270.756357,79.900808 L146.474357,79.900808 C109.703761,79.900808 79.895304,109.709265 79.895304,146.479861 L79.895304,270.756357 C79.895304,275.659103 83.8697649,279.633564 88.772511,279.633564 L219.713727,279.633564 C252.806539,279.633564 279.633564,252.806539 279.633564,219.713727 L279.633564,168.671098 C279.633564,163.768352 275.659103,159.793891 270.756357,159.793891 L168.668476,159.793891 C163.766637,159.796216 159.792553,163.76926 159.788944,168.671098 L159.783132,190.863225 C159.77945,195.765971 163.75287,199.741472 168.655616,199.742756 C168.656415,199.742756 168.657215,199.742757 168.658015,199.740358 L230.808925,199.73984 C235.624122,199.739728 239.543923,203.573477 239.682419,208.355158 L239.686132,208.616973 L239.686132,208.616973 L239.686132,213.055352 C239.686132,227.763591 227.762749,239.686974 213.054511,239.686974 L128.714437,239.686974 C123.812395,239.686729 119.838466,235.71291 119.838086,230.810868 L119.835762,146.478971 C119.834622,131.770732 131.757676,119.847021 146.465915,119.846615 C146.466159,119.846615 146.466404,119.846615 146.466649,119.847349 L270.73158,119.847349 C275.632176,119.841842 279.605746,115.870736 279.614293,110.970144 L279.628058,88.7780133 C279.636603,83.8752716 275.664608,79.8983463 270.761863,79.8953054 Z" id="Combined-Shape"></path>
                </g>
            </g>
        </g>
    </g>
</svg>